<svg xmlns="http://www.w3.org/2000/svg" xmlns:xlink="http://www.w3.org/1999/xlink" viewBox="0 0 310.52 247.87"><defs><style>.cls-1{isolation:isolate;}.cls-14,.cls-2,.cls-6{fill:none;}.cls-2{stroke:#c9bcbd;stroke-linecap:round;stroke-linejoin:round;stroke-width:0.63px;}.cls-3{fill:url(#radial-gradient);}.cls-4{fill:url(#radial-gradient-2);}.cls-5{fill:#eaaa96;}.cls-6{stroke:#b27666;stroke-width:0.22px;}.cls-14,.cls-6{stroke-miterlimit:10;}.cls-7{fill:#1c1465;}.cls-8{opacity:0.24;}.cls-9{fill:#221200;}.cls-10{fill:#828282;}.cls-11{fill:#6e6e6e;mix-blend-mode:darken;}.cls-12{fill:#b27666;}.cls-13{fill:#6d1f14;}.cls-14{stroke:#7f3626;stroke-width:0.16px;}.cls-15{fill:#fff;}</style><radialGradient id="radial-gradient" cx="168.77" cy="49.19" r="153.8" gradientTransform="matrix(0.99, 0.08, 0.08, 0.57, -20.77, 111.57)" gradientUnits="userSpaceOnUse"><stop offset="0" stop-color="#c04efe"/><stop offset="1" stop-color="#d97ef2"/></radialGradient><radialGradient id="radial-gradient-2" cx="2735.44" cy="3831.75" r="33.81" gradientTransform="matrix(-4.25, 0.03, 0.01, 0.21, 11749.05, -665.88)" gradientUnits="userSpaceOnUse"><stop offset="0" stop-color="#010101" stop-opacity="0.3"/><stop offset="1" stop-color="#1d1d1b" stop-opacity="0"/></radialGradient></defs><g class="cls-1"><g id="Layer_2" data-name="Layer 2"><g id="Layer_1-2" data-name="Layer 1"><line class="cls-2" x1="119.67" y1="211" x2="238.51" y2="211"/><path class="cls-3" d="M107.68,63.16c39.86,3.89,148.69,11.09,173.69,43.34s-18.12,66.21-3.73,83.06,63.52,60.27,4.59,58.25S16.27,235.59,21.77,206s-39.2-43.11-14-69.75,47.51-35.46,54.83-44.16C68.08,85.58,70,59.48,107.68,63.16Z"/><ellipse class="cls-4" cx="164.08" cy="210.87" rx="145.9" ry="7.11"/><path class="cls-5" d="M153.48,190.67a4,4,0,0,0,2.44-2.24,3.93,3.93,0,0,0,.22-1.56c-.16-3-42-2.88-42.49-2.77-.19,0-1.22-.37-1.29-1.78-.32-6.27,3.86-25.62,3.86-25.62l1.29-5.94-1.91-5.33-7-35.1,0-.39h0l-.15,0a.53.53,0,0,0-.12,0,31.06,31.06,0,0,0-5.27,2.62,13.4,13.4,0,0,0-2.23,1.52c-1.52,1.51-8.47,30.2-9.13,37.58-.52,6,.8,16.05-.29,24.06,0,.43-.12.86-.2,1.28a21.56,21.56,0,0,1-1,4c-2.8,7.62-2.84,16.53,1.28,20.42a6.65,6.65,0,0,0,1.11.87c5.21,3.26,60,9.29,60,5.43.11-2.49-1.53-2.82-1.53-2.82s4.84.33,5.11-2.61a4.54,4.54,0,0,0-1.79-4.24s4.18.38,4.34-2.65S157.82,190.51,153.48,190.67Zm0,0-22.91-1.38"/><path class="cls-6" d="M93.37,181.85c.34-.19,6.71-6,12.59-3.21s6,3.66,6,3.66"/><path class="cls-6" d="M112.15,182.36s-7.76-.28-11.4.72"/><path class="cls-5" d="M154.24,198.11s-23.36-.76-26.15-.14"/><line class="cls-5" x1="150.92" y1="204.96" x2="132.85" y2="205.2"/><path class="cls-5" d="M178.71,190.69c.16,3,4.34,2.66,4.34,2.66a4.53,4.53,0,0,0-1.79,4.24c.27,2.93,5.11,2.6,5.11,2.6s-1.63.33-1.53,2.83c0,3.85,25.42,5.86,33,5.21,3.16-.27-1-1.54.72-2.51a35.86,35.86,0,0,1,6-1.53c1.3-.23,4-1,4-1s11.08-2.39,16.29-5.64a7.22,7.22,0,0,0,1.11-.87c4.12-3.9,4.08-12.81,1.28-20.42a21.67,21.67,0,0,1-1-4c-.08-.42-.15-.84-.2-1.28-1.09-8,.23-18.09-.29-24.06-.66-7.38-7.61-36.06-9.13-37.58a14,14,0,0,0-2.23-1.52,31.86,31.86,0,0,0-5.27-2.62l-.11,0-.16,0h0l0,.39-7.05,35.1L219.78,146l1.29,5.94s4.18,19.34,3.86,25.61c-.07,1.41-.19,2.26-.38,2.22-.48-.1-3.41,1.75-4.43.75-1.19-1.16-.52-5.2-1.6-5.58-2-.71-4.84-.55-6.09.21s-12.11,1.31-12.11,1.31-19,2.66-19.17,5.64a3.65,3.65,0,0,0,2.66,3.81C179.47,185.75,178.55,187.65,178.71,190.69Zm28-6.17-22.91,1.39"/><path class="cls-6" d="M243.92,177.08c-.34-.18-6.71-6-12.59-3.2s-6,3.66-6,3.66"/><path class="cls-6" d="M225.14,177.59s7.76-.28,11.4.72"/><path class="cls-5" d="M183.05,193.35s23.36-.77,26.15-.15"/><line class="cls-5" x1="186.37" y1="200.19" x2="204.44" y2="200.43"/><path class="cls-7" d="M85.62,157.88l28.94,7.49,2.72-5.45s8.52,15,7.16,24.18,87.85,2.72,87.85,2.72l6.13-27.24,4.42-3.41,27.24-9.87s-8.85-43.59-23.15-46-22.81-3.75-22.81-3.75l-44.27,6.13s-46-2.72-55.85,6.81S85.62,157.88,85.62,157.88Z"/><path class="cls-5" d="M146.57,73.54l-5.22,39.84s22.93,18.84,41.77,3.63,2.27-49.6,2.27-49.6Z"/><path class="cls-8" d="M195.77,54.1c0,10-1.88,19.95-6.3,26.65-4.73,7.17-6.55,11.24-14,11.24-6.23,0-20-5.63-24.51-10.9-5.83-6.85-7.16-15.31-7.16-27,0-20.63,11.63-37.37,26-37.37S195.77,33.47,195.77,54.1Z"/><path class="cls-5" d="M192.71,48.66c0,10-1.88,19.94-6.3,26.64A23.47,23.47,0,0,1,166.74,86c-6.23,0-13.2-2.46-17.67-7.72-5.83-6.85-8.29-18-8.29-29.65,0-20.64,11.62-37.37,26-37.37S192.71,28,192.71,48.66Z"/><path class="cls-5" d="M191.35,50.27s3.57-6.81,5.61-6.13-.34,8.18-2.21,12.09-1.7,7.83-3.57,7S191.35,50.27,191.35,50.27Z"/><path class="cls-5" d="M142.48,51.47s-3.58-6.81-5.62-6.13.34,8.17,2.21,12.08,1.7,7.84,3.58,7S142.48,51.47,142.48,51.47Z"/><path class="cls-9" d="M150.43,14.18s17.48,18.16,21.79,19.07l4.31.91s-6.13-3.18-7.26-5.22c0,0,7.49,2.72,8.63,5s13.5,13.85,13.45,16.34,1.76-3,1.76-3,2.49-3.57,3.85-3.18.06,6.93.06,6.93l-2.86,6.66s-1.4,5.33-2.11,5.56-1.29-.53-1.29-.53-2.48,9.48-4.35,12.54-6.47,9.71-7.83,20.09,4.08,14,2.21,19.07-8.51,13.45-8.51,18.56.85,12.6,4.42,14.47,4.77,1.53,4.77,1.53-5.45-3.91-4.77-8.68,1.37-6,1.37-6-1.54,10.73,5.78,16.18,14,3.4,14,3.4-4.43-1-6-2.72-4.77-9.71-4.77-9.71,7.66,10.73,12.6,11.07a36.77,36.77,0,0,0,7.15,0l-4.26-3.24,5.49.49c3.56-.95,1.84-1.21-.38-1.34-4.2-.24-7.71-4.12-7.32-13.79.45-11.35,9.7-21.79,9.7-29.28s7-12.09,7.16-17.54S206.33,61.51,206,58.28,199.35.9,173.81.05s-24.69,9.87-24.69,9.87Z"/><path class="cls-9" d="M148.31,77.82c-2-2.95-5.37-13.85-5.37-13.85a.88.88,0,0,1-1.14.53c-.83-.3-2.34-6.36-3.56-8.48s-2.42-8.92-2.19-9.53.08-1,1.74-1.13,2.57,3.63,3.33,3.93,4.16-7.95,4.09-9.38.6-8.55,4-11.73,3.93-10.67,3.93-10.67c.3-6.21-1.21-11.12-2.19-11.58s-5.15,2-8.25,4.39c-7.64,7.87-12.71,45-14.3,51.53s4.31,11.81-.68,21.11-4.62,42.08-5.83,47a11,11,0,0,0,.56,5.55c-.66,2-2,5-4.19,5.05-3.1.07-4-.52-4.15-.6.3.22,6.17,4.43,9-.69,0,1.45-.69,2.74-2.7,3.78-5.82,3-10-2.34-10-2.34s-.15,2.57,5.68,5.07,16.8-8,16.19-6.74a38.47,38.47,0,0,1-3.71,4.62s3.49-2,4.47-4.16,6.2-5.45,6.2-5.45-4.31,3.86-4.76,6.13-16.12,10-16.12,10,3.4-.23,12.94-4.32a25.18,25.18,0,0,0,8.09-6.23,17.94,17.94,0,0,1-2.34,5c-2.27,2.73-11.2,7-11.2,7l9.54-1.66c7.9-1.38,11.85-17.79,13-23.36a36.23,36.23,0,0,0,3.37-8.35c1.36-6.51,2.42-11.58,3.33-14.83s-2.2-15.74-2.2-15.74,1,3.41,2.2,7.79a22,22,0,0,1,.23,9.08s1.36-5.37,2-9.15S150.35,80.77,148.31,77.82Z"/><path class="cls-9" d="M114.12,140h0Z"/><path d="M175.17,49.67a2.8,2.8,0,0,1,1.37-2.9c2.3-1.58,6.09-1.26,7.58,1.27a2.14,2.14,0,0,1,.21,1.63c-1.13-3.16-8-3.17-9.16,0Z"/><path d="M149.75,49.67a2.8,2.8,0,0,1,1.36-2.9c2.3-1.58,6.09-1.26,7.59,1.27a2.19,2.19,0,0,1,.2,1.63c-1.12-3.16-8-3.17-9.15,0Z"/><rect class="cls-10" x="116.16" y="151.61" width="105.76" height="66.54" rx="5.78"/><path class="cls-11" d="M221.91,157.39v55a5.7,5.7,0,0,1-.94,3.16l-4-42.44c0-10-9.32-16-19.3-16l-74.06-5.45h92.53A5.77,5.77,0,0,1,221.91,157.39Z"/><path d="M174.12,38.9c-1.34-.07-.29,2.26.7,2.51s3.4-.94,10.15.4C186.24,42.06,185.12,39.55,174.12,38.9Z"/><path d="M159.07,38.83c1.33-.08.28,2.26-.71,2.51s-3.4-.94-10.15.4C146.94,42,148.06,39.48,159.07,38.83Z"/><path class="cls-12" d="M170.58,59.37c2,1.5-1.26,2.06-2.26,2.43-.58.16-.93.67-1.67.63a1.54,1.54,0,0,1-.66-.34c-.75-.62-4.19-1-2.89-2.5a2.69,2.69,0,0,1,.57-.45c-.14.26-.55.83-.36,1,.85.41,2.31.42,3.22,1l.3.2s-.09,0,0,0a6.84,6.84,0,0,1,2.64-.77c.88-.14,1.91,0,1.15-1.22Z"/><path class="cls-13" d="M159.79,72.86A40.86,40.86,0,0,1,165,71.05c.74,0,1.32.74,2,.74s1.08-.74,1.9-.66,4.14,1.49,5.46,1.16c0,0-3.06,3.63-7.19,3.8S159.79,72.86,159.79,72.86Z"/><path class="cls-14" d="M174.34,72.29a59.32,59.32,0,0,1-7.11,1.32c-1.57,0-7.44-.75-7.44-.75"/><path class="cls-15" d="M193.27,53.74a1.55,1.55,0,0,0-1.87,1.12,1.52,1.52,0,0,0,.37,1.44l-.53,2.11a.83.83,0,0,0,1.61.4l.53-2.1a1.56,1.56,0,0,0,1-1.09A1.55,1.55,0,0,0,193.27,53.74Z"/><path class="cls-15" d="M142.85,58l-1.12-1.86a1.54,1.54,0,1,0-2.7.1,1.53,1.53,0,0,0,1.29.74l1.11,1.87a.82.82,0,0,0,1.13.28A.83.83,0,0,0,142.85,58Z"/></g></g></g></svg>